<svg xmlns="http://www.w3.org/2000/svg" xmlns:xlink="http://www.w3.org/1999/xlink" width="200" zoomAndPan="magnify" viewBox="0 0 150 149.999998" height="200" preserveAspectRatio="xMidYMid meet" version="1.0"><defs><clipPath id="6c9377ce06"><path d="M 5 14.25 L 146 14.25 L 146 135.75 L 5 135.75 Z M 5 14.25 " clip-rule="nonzero"/></clipPath><clipPath id="7e33befd43"><path d="M 6 41 L 138 41 L 138 135.75 L 6 135.75 Z M 6 41 " clip-rule="nonzero"/></clipPath><clipPath id="e94e98bd1f"><path d="M 15 15 L 132 15 L 132 135.75 L 15 135.75 Z M 15 15 " clip-rule="nonzero"/></clipPath><clipPath id="b79e75ed4d"><path d="M 15 16 L 139 16 L 139 135.75 L 15 135.75 Z M 15 16 " clip-rule="nonzero"/></clipPath><clipPath id="e8a33b0a39"><path d="M 4 14.25 L 146 14.25 L 146 135.75 L 4 135.75 Z M 4 14.25 " clip-rule="nonzero"/></clipPath></defs><g clip-path="url(#6c9377ce06)"><path fill="#ffffff" d="M 21.300781 135.195312 L 22.5 135.023438 C 22.5 135.023438 21.214844 133.050781 17.332031 124.457031 C 13.449219 115.863281 17.191406 113.492188 20.675781 114.691406 C 18.417969 109.722656 25.328125 109.953125 26.613281 111.207031 C 27.839844 107.238281 26.84375 107.179688 32.351562 107.695312 C 37.863281 108.179688 61.878906 134.996094 61.878906 134.996094 C 61.878906 134.996094 115.960938 135.164062 136.578125 135.164062 C 141.519531 129.226562 146.460938 120.230469 144.71875 115.949219 C 142.945312 111.691406 137.722656 109.894531 137.722656 109.894531 C 137.722656 109.894531 138.550781 109.324219 139.691406 101.015625 C 139.976562 73.515625 127.46875 64.921875 115.789062 55.152344 C 112.191406 37.335938 98.628906 18.660156 90.976562 14.378906 C 80.980469 21.601562 68.445312 42.933594 68.445312 42.933594 L 52.3125 47.160156 C 52.3125 47.160156 32.925781 25.800781 24.273438 21.515625 C 16.21875 29.082031 13.449219 40.589844 12.222656 47.703125 C 9.394531 64.320312 12.222656 73.285156 12.222656 73.285156 C 12.222656 73.285156 5.597656 83.910156 5.597656 99.015625 C 5.597656 107.4375 6.625 115.949219 11.59375 124.199219 C 14.050781 128.285156 21.300781 135.195312 21.300781 135.195312 Z M 50.484375 71.601562 C 53.167969 70.6875 58.710938 79.511719 53.710938 78.285156 C 48.6875 77.054688 47.800781 72.515625 50.484375 71.601562 Z M 50.484375 71.601562 " fill-opacity="1" fill-rule="nonzero"/></g><g clip-path="url(#7e33befd43)"><path fill="#ef5454" d="M 15.21875 41.960938 C 15.21875 41.960938 10.109375 64.464844 22.585938 79.425781 C 17.761719 86.023438 19.503906 113.464844 56.023438 122.34375 C 86.835938 131.109375 116.390625 125.398438 132.839844 109.980469 C 130.382812 115.546875 126.386719 123.371094 121.246094 128.339844 C 127.15625 124.886719 134.636719 117.71875 137.492188 109.664062 C 136.894531 116.949219 132.4375 127.941406 121.789062 135.109375 C 105.195312 135.136719 32.894531 135.109375 32.894531 135.109375 C 32.894531 135.109375 12.164062 125 6.910156 106.980469 C 3.539062 86.480469 12.191406 74.285156 12.191406 74.285156 C 12.191406 74.285156 10.109375 62.007812 10.792969 55.324219 C 11.59375 48.15625 15.21875 41.960938 15.21875 41.960938 Z M 36.09375 125.800781 C 38.777344 127.140625 38.519531 122.914062 36.09375 122.402344 C 33.667969 121.917969 33.410156 124.515625 36.09375 125.800781 Z M 36.09375 125.800781 " fill-opacity="0.298" fill-rule="nonzero"/></g><path fill="#2b0806" d="M 117.820312 33.910156 C 126.269531 34.421875 128.441406 45.160156 128.726562 46.929688 C 128.726562 47.101562 128.726562 47.1875 128.726562 47.1875 C 128.726562 47.1875 128.726562 47.128906 128.753906 47.074219 C 128.753906 47.160156 128.785156 47.1875 128.785156 47.1875 C 128.785156 47.1875 128.785156 47.101562 128.785156 46.929688 C 129.070312 45.160156 131.125 34.480469 139.691406 33.910156 C 131.210938 33.394531 129.039062 22.660156 128.753906 20.886719 C 128.753906 20.714844 128.753906 20.632812 128.753906 20.632812 C 128.753906 20.632812 128.753906 20.6875 128.726562 20.773438 C 128.726562 20.6875 128.699219 20.632812 128.699219 20.632812 C 128.699219 20.632812 128.699219 20.714844 128.699219 20.886719 C 128.441406 22.660156 126.386719 33.339844 117.820312 33.910156 Z M 138.320312 44.960938 C 138.320312 44.875 138.320312 44.847656 138.320312 44.847656 C 138.320312 44.847656 138.320312 44.875 138.320312 44.902344 C 138.320312 44.875 138.320312 44.847656 138.320312 44.847656 C 138.320312 44.847656 138.320312 44.902344 138.320312 44.960938 C 138.492188 45.816406 139.546875 51.15625 143.746094 51.414062 C 139.519531 51.699219 138.492188 56.980469 138.347656 57.867188 C 138.347656 57.953125 138.347656 57.980469 138.347656 57.980469 C 138.347656 57.980469 138.347656 57.953125 138.347656 57.925781 C 138.347656 57.953125 138.347656 57.980469 138.347656 57.980469 C 138.347656 57.980469 138.347656 57.925781 138.347656 57.867188 C 138.207031 57.011719 137.121094 51.671875 132.953125 51.414062 C 137.148438 51.15625 138.148438 45.84375 138.320312 44.960938 Z M 138.320312 44.960938 " fill-opacity="1" fill-rule="nonzero"/><g clip-path="url(#e94e98bd1f)"><path fill="#efb07d" d="M 115.847656 55.210938 Z M 115.847656 55.183594 C 115.820312 55.183594 115.820312 55.183594 115.847656 55.183594 C 115.820312 55.183594 115.820312 55.183594 115.847656 55.183594 Z M 20.132812 67.40625 C 13.421875 55.097656 26.183594 29.882812 26.183594 29.882812 C 29.78125 33.996094 33.609375 49.871094 34.179688 53.582031 C 29.324219 55.125 22.414062 59.496094 20.132812 67.40625 Z M 115.820312 55.183594 C 115.820312 55.183594 115.789062 55.152344 115.820312 55.183594 C 115.789062 55.152344 115.820312 55.183594 115.820312 55.183594 Z M 68.445312 42.960938 C 68.445312 42.960938 81.808594 22.6875 91.203125 15.492188 C 95.175781 17.945312 98.601562 21.03125 101.800781 25.800781 C 99.6875 23.257812 97.34375 21.171875 94.859375 19.945312 C 94.859375 19.945312 106.082031 32.28125 110.566406 50.640625 C 107.394531 50.300781 99.6875 50.898438 99.6875 50.898438 C 99.6875 50.898438 110.964844 51.441406 119.902344 60.09375 C 123.585938 61.75 126.441406 63.347656 131.324219 70.144531 C 132.894531 75.027344 117.476562 97.128906 87.09375 84.824219 C 58.222656 73.117188 66.164062 43.589844 66.164062 43.589844 Z M 17.246094 114.292969 C 18.789062 114.007812 20.644531 114.71875 20.644531 114.71875 C 20.644531 114.71875 19.761719 111.035156 22.5 110.464844 C 25.242188 109.894531 27.726562 112.121094 27.726562 112.121094 C 27.726562 112.121094 25.871094 107.808594 30.410156 107.039062 C 36.777344 106.011719 61.992188 135.164062 61.992188 135.164062 L 21.300781 135.164062 C 21.300781 135.195312 12.59375 117.40625 17.246094 114.292969 Z M 17.246094 114.292969 " fill-opacity="1" fill-rule="nonzero"/></g><path fill="#fcc85e" d="M 138.320312 48.585938 C 138.320312 48.558594 138.320312 48.53125 138.320312 48.53125 C 138.320312 48.53125 138.320312 48.53125 138.320312 48.585938 C 138.320312 48.53125 138.320312 48.53125 138.320312 48.53125 C 138.320312 48.53125 138.320312 48.558594 138.320312 48.585938 C 138.40625 48.957031 138.863281 51.300781 140.71875 51.414062 C 138.835938 51.554688 138.40625 53.871094 138.347656 54.242188 C 138.347656 54.269531 138.347656 54.296875 138.347656 54.296875 C 138.347656 54.296875 138.347656 54.296875 138.347656 54.269531 C 138.347656 54.296875 138.347656 54.296875 138.347656 54.296875 C 138.347656 54.296875 138.347656 54.269531 138.347656 54.242188 C 138.292969 53.871094 137.808594 51.527344 135.980469 51.414062 C 137.808594 51.269531 138.265625 48.984375 138.320312 48.585938 Z M 128.726562 41.90625 C 128.726562 41.90625 128.726562 41.875 128.726562 41.820312 C 128.726562 41.875 128.726562 41.90625 128.726562 41.90625 C 128.699219 41.90625 128.699219 41.847656 128.699219 41.761719 C 128.527344 40.707031 127.242188 34.25 122.128906 33.910156 C 127.296875 33.566406 128.496094 27.140625 128.699219 26.054688 C 128.699219 25.972656 128.699219 25.914062 128.699219 25.914062 C 128.699219 25.914062 128.699219 25.941406 128.699219 26 C 128.699219 25.941406 128.699219 25.914062 128.699219 25.914062 C 128.699219 25.914062 128.699219 25.972656 128.699219 26.054688 C 128.871094 27.113281 130.152344 33.566406 135.265625 33.910156 C 130.097656 34.25 128.898438 40.675781 128.699219 41.761719 C 128.726562 41.847656 128.726562 41.90625 128.726562 41.90625 Z M 128.726562 41.90625 " fill-opacity="1" fill-rule="nonzero"/><g clip-path="url(#b79e75ed4d)"><path fill="#ef5454" d="M 68.648438 43.933594 C 72.472656 43.273438 80.039062 42.160156 86.921875 44.730469 C 84.152344 35.964844 91.035156 16.375 91.035156 16.375 C 80.210938 20.660156 66.933594 42.503906 68.648438 43.933594 Z M 19.417969 114.433594 C 19.417969 114.433594 17.53125 116.546875 22.214844 124.199219 C 26.871094 131.851562 30.011719 135.195312 30.011719 135.195312 L 22.617188 135.195312 C 22.617188 135.195312 14.449219 121.03125 15.277344 115.949219 C 16.132812 110.894531 19.417969 114.433594 19.417969 114.433594 Z M 124.527344 33.222656 C 126.671875 33.023438 129.382812 34.109375 128.839844 41.191406 C 128.785156 41.449219 128.753906 41.617188 128.726562 41.734375 C 128.726562 41.820312 128.726562 41.875 128.726562 41.875 C 128.726562 41.875 128.726562 41.847656 128.726562 41.789062 C 128.726562 41.847656 128.726562 41.875 128.726562 41.875 C 128.726562 41.875 128.726562 41.820312 128.726562 41.734375 C 128.554688 40.675781 127.269531 34.222656 122.160156 33.878906 C 123.074219 33.851562 123.84375 33.625 124.527344 33.222656 Z M 138.433594 53.726562 C 138.378906 53.984375 138.320312 54.15625 138.320312 54.242188 C 138.320312 54.269531 138.320312 54.296875 138.320312 54.296875 C 138.320312 54.296875 138.320312 54.296875 138.320312 54.269531 C 138.320312 54.296875 138.320312 54.296875 138.320312 54.296875 C 138.320312 54.296875 138.320312 54.269531 138.320312 54.242188 C 138.265625 53.871094 137.777344 51.527344 135.949219 51.414062 C 136.238281 51.386719 136.464844 51.328125 136.691406 51.214844 C 137.464844 51.128906 138.605469 51.386719 138.433594 53.726562 Z M 138.433594 53.726562 " fill-opacity="0.298" fill-rule="nonzero"/></g><g clip-path="url(#e8a33b0a39)"><path fill="#2b0806" d="M 69.304688 86.078125 C 69.074219 90.761719 75.898438 93.675781 78.871094 87.164062 C 85.578125 93.875 88.207031 86.078125 88.207031 86.078125 C 100.515625 94.644531 101.027344 115.949219 80.554688 115.949219 C 58.59375 115.949219 60.9375 92.363281 69.304688 86.078125 Z M 36.09375 54.355469 C 26.355469 57.753906 20.132812 67.433594 20.132812 67.433594 C 20.132812 67.433594 21.671875 61.09375 25.699219 57.695312 C 29.554688 54.46875 33.066406 52.382812 33.066406 52.382812 C 33.066406 52.382812 28.382812 33.710938 26.214844 29.882812 C 26.183594 29.882812 32.351562 35.9375 36.09375 54.355469 Z M 14.476562 118.632812 C 13.648438 111.980469 18.105469 112.265625 19.558594 113.519531 C 18.273438 110.207031 23.445312 107.808594 26.15625 110.609375 C 25.585938 105.8125 30.296875 103.15625 37.378906 108.835938 C 43.773438 114.007812 56.195312 126.597656 63.535156 135.195312 C 60.992188 135.195312 60.023438 135.195312 60.023438 135.195312 C 60.023438 135.195312 48.542969 122.488281 42.03125 115.976562 C 35.523438 109.464844 31.46875 107.609375 29.011719 109.152344 C 27.46875 110.152344 27.699219 113.492188 27.699219 113.492188 C 27.699219 113.492188 24.242188 110.523438 22.074219 111.808594 C 20.300781 112.835938 21.214844 114.835938 22.042969 116.660156 C 19.21875 113.835938 15.789062 115.003906 16.5625 119.230469 C 17.132812 122.542969 21.472656 131.253906 23.445312 135.136719 L 19.761719 135.136719 C 19.761719 135.136719 13.992188 130.425781 11.566406 125.972656 C 11.566406 121.515625 12.164062 122.316406 12.164062 122.316406 C 12.164062 122.316406 13.933594 125.113281 17.902344 129.453125 C 17.21875 128.3125 14.847656 121.542969 14.476562 118.632812 Z M 58.050781 70.773438 C 63.820312 76.542969 63.820312 85.964844 58.050781 91.761719 C 52.285156 97.53125 42.859375 97.53125 37.066406 91.761719 C 31.296875 85.992188 31.296875 76.570312 37.066406 70.773438 C 42.832031 64.976562 52.226562 64.976562 58.050781 70.773438 Z M 115.21875 61.09375 C 120.988281 66.863281 120.988281 76.285156 115.21875 82.082031 C 109.453125 87.851562 100.027344 87.851562 94.230469 82.082031 C 88.433594 76.3125 88.464844 66.890625 94.230469 61.09375 C 100 55.296875 109.453125 55.324219 115.21875 61.09375 Z M 10.90625 74.027344 C 4.824219 52.925781 18.191406 27.710938 18.191406 27.710938 C 19.589844 24.886719 21.273438 22 23.328125 19.289062 C 25.871094 19.058594 39.292969 30.710938 52.941406 44.988281 C 52.941406 44.988281 59.050781 42.933594 66.933594 42.503906 C 69.101562 37.648438 76.671875 25.3125 90.949219 14.40625 C 93.945312 14.835938 109.367188 27.769531 116.164062 54.753906 C 129.183594 61.691406 144.144531 80.453125 140.175781 104.183594 C 139.890625 105.8125 139.261719 108.238281 138.804688 109.695312 L 140.035156 110.179688 C 140.035156 110.179688 150 114.664062 143.890625 125.144531 C 137.777344 135.621094 137.148438 135.222656 137.148438 135.222656 L 134.464844 135.222656 C 134.464844 135.222656 142.203125 126.054688 143.261719 119.488281 C 144.03125 114.835938 140.261719 112.722656 138.347656 112.066406 C 128.839844 131.394531 110.851562 135.25 110.851562 135.25 L 103.710938 135.25 C 103.710938 135.25 133.609375 128.371094 137.664062 103.441406 C 139.0625 94.816406 137.4375 86.566406 134.953125 79.796875 C 134.953125 79.824219 134.953125 79.855469 134.953125 79.855469 C 125.871094 58.808594 106.453125 52.269531 106.453125 52.269531 C 109.082031 52.296875 111.621094 52.785156 113.933594 53.640625 C 110.535156 41.390625 103.113281 26.800781 91.003906 16.40625 C 83.125 22.316406 72.84375 37.25 69.816406 42.445312 C 72.300781 42.445312 74.957031 42.648438 77.585938 43.132812 C 77.441406 43.847656 59.308594 45.960938 52.3125 47.246094 C 47.203125 41.933594 33.039062 27.769531 24.273438 21.601562 C 19.246094 28.742188 16.105469 39.707031 14.25 46.644531 C 13.679688 49.1875 13.277344 51.554688 12.964844 53.785156 C 12.363281 59.808594 12.679688 66.832031 13.734375 74.398438 C 12.933594 75.226562 12.136719 76.628906 11.765625 77.3125 C 11.734375 77.371094 11.707031 77.398438 11.707031 77.457031 C 10.050781 80.683594 7.882812 86.851562 7.253906 97.558594 C 6.054688 117.945312 15.191406 126.542969 15.191406 126.542969 C 15.191406 126.542969 14.304688 130.253906 16.617188 132.480469 C 0 115.949219 2.027344 88.5625 10.90625 74.027344 Z M 10.90625 74.027344 " fill-opacity="1" fill-rule="nonzero"/></g><path fill="#ef5454" d="M 80.382812 112.976562 C 87.09375 112.976562 91.121094 110.265625 92.945312 106.523438 C 81.78125 93.960938 67.304688 98.042969 66.21875 98.328125 C 65.589844 105.382812 68.875 112.976562 80.382812 112.976562 Z M 80.382812 112.976562 C 87.09375 112.976562 91.121094 110.265625 92.945312 106.523438 C 81.78125 93.960938 67.304688 98.042969 66.21875 98.328125 C 65.589844 105.382812 68.875 112.976562 80.382812 112.976562 Z M 80.382812 112.976562 " fill-opacity="1" fill-rule="nonzero"/><path fill="#ffffff" d="M 113.078125 65.75 C 113.792969 63.148438 105.996094 58.667969 104.140625 61.152344 C 100.914062 65.433594 112.164062 69.117188 113.078125 65.75 Z M 94.347656 68.632812 C 95.03125 65.121094 99.714844 64.519531 103.398438 68.175781 C 107.082031 71.800781 112.535156 70.375 114.363281 72.402344 C 116.246094 74.429688 113.019531 82.996094 105.367188 82.996094 C 98.945312 82.996094 92.460938 78.539062 94.347656 68.632812 Z M 55.882812 75.3125 C 56.597656 72.714844 48.800781 68.234375 46.945312 70.714844 C 43.71875 74.972656 54.96875 78.65625 55.882812 75.3125 Z M 37.148438 78.199219 C 37.835938 74.6875 42.519531 74.085938 46.203125 77.742188 C 49.886719 81.367188 55.339844 79.941406 57.167969 81.96875 C 59.050781 83.996094 55.824219 92.5625 48.171875 92.5625 C 41.777344 92.5625 35.265625 88.105469 37.148438 78.199219 Z M 37.148438 78.199219 " fill-opacity="1" fill-rule="nonzero"/></svg>