<svg xmlns="http://www.w3.org/2000/svg" xmlns:xlink="http://www.w3.org/1999/xlink" width="200" zoomAndPan="magnify" viewBox="0 0 150 149.999998" height="200" preserveAspectRatio="xMidYMid meet" version="1.0"><defs><clipPath id="ccaf4cbcac"><path d="M 15 16 L 149 16 L 149 134.71875 L 15 134.71875 Z M 15 16 " clip-rule="nonzero"/></clipPath><clipPath id="848d6a33ff"><path d="M 16 20 L 149 20 L 149 134.71875 L 16 134.71875 Z M 16 20 " clip-rule="nonzero"/></clipPath><clipPath id="3185bd9bf0"><path d="M 16 32 L 126 32 L 126 134.71875 L 16 134.71875 Z M 16 32 " clip-rule="nonzero"/></clipPath><clipPath id="9936c00614"><path d="M 14 15.46875 L 150 15.46875 L 150 134.71875 L 14 134.71875 Z M 14 15.46875 " clip-rule="nonzero"/></clipPath></defs><g clip-path="url(#ccaf4cbcac)"><path fill="#ffffff" d="M 148.679688 125.351562 L 148.203125 134.636719 L 114.449219 134.636719 L 115.046875 125.351562 Z M 140.929688 84.65625 C 140.929688 84.65625 141.789062 69.492188 129.058594 53.785156 C 131.976562 39.273438 128.0625 19.828125 124.347656 16.964844 C 117.332031 17.375 102.679688 22.519531 94.539062 35.453125 C 86.300781 32.515625 74.671875 31.738281 62.941406 34.671875 C 62.941406 34.671875 49.058594 20.066406 32.78125 16.964844 C 24.882812 22.734375 27.355469 50.851562 27.273438 54.386719 C 21.769531 64.214844 0.945312 94.25 35.175781 115.316406 C 30.625 127.03125 28.816406 134.472656 28.816406 134.472656 L 113.210938 134.636719 C 113.210938 134.636719 114.773438 118.164062 116.449219 110.011719 C 118.125 101.863281 119.683594 88.191406 123.265625 86.589844 C 126.847656 84.988281 129.648438 88.789062 129.648438 88.789062 C 129.648438 88.789062 133.699219 78.839844 136.863281 87.710938 C 135.953125 84.351562 140.929688 84.65625 140.929688 84.65625 Z M 140.929688 84.65625 " fill-opacity="1" fill-rule="nonzero"/></g><path fill="#efb07d" d="M 118.636719 97.300781 C 121.269531 83.992188 126.65625 85.3125 129.648438 88.789062 C 130.128906 84.710938 134.4375 83.394531 136.949219 86.628906 C 146.644531 77.039062 148.203125 105.492188 148.203125 105.492188 L 148.203125 123.914062 C 148.203125 123.914062 146.03125 130.984375 131.148438 130.984375 C 118.160156 130.984375 114.449219 125.230469 114.449219 125.230469 C 114.449219 125.230469 116.003906 110.605469 118.636719 97.300781 Z M 63.363281 34.84375 C 60.488281 30.539062 41.996094 15.539062 33.019531 16.980469 C 22.847656 28.730469 27.753906 54.386719 27.753906 54.386719 C 27.753906 54.386719 19.351562 65.640625 18.351562 76.515625 C 18.675781 84.535156 40.445312 98.582031 65.335938 77.714844 C 88.988281 57.882812 69.945312 33.644531 69.945312 33.644531 C 69.945312 33.644531 66.710938 33.875 63.363281 34.84375 Z M 122.316406 23.933594 L 114.449219 39.917969 C 114.449219 39.917969 121.480469 45.753906 123.328125 50.789062 C 125.179688 45.992188 125.671875 33.765625 122.316406 23.933594 Z M 122.316406 23.933594 " fill-opacity="1" fill-rule="nonzero"/><g clip-path="url(#848d6a33ff)"><path fill="#ef5454" d="M 148.203125 134.636719 C 148.203125 134.636719 148.203125 134.636719 133.660156 134.636719 C 144.96875 133.609375 146.347656 103.058594 146.347656 103.058594 Z M 41.476562 39.917969 C 41.476562 39.917969 35.253906 26.972656 34.21875 23.933594 C 31.582031 30.328125 31.148438 46.3125 33.203125 50.789062 C 37.238281 45.859375 41.476562 39.917969 41.476562 39.917969 Z M 113.277344 134.636719 C 114.609375 126.28125 116.4375 114.785156 117.910156 105.515625 C 117.902344 105.519531 117.894531 105.523438 117.886719 105.523438 L 119.394531 88.886719 C 119.296875 89.003906 119.175781 89.164062 119.027344 89.378906 C 117.886719 91.03125 115.304688 95.785156 113.21875 107.089844 C 104.671875 109.636719 93.417969 111.390625 78.597656 111.492188 C 21.144531 111.097656 17.230469 85.863281 17.230469 85.863281 C 17.230469 85.863281 16.195312 89.265625 18.398438 94.824219 C 17.757812 94.28125 17.265625 93.847656 17 93.582031 C 18.691406 106.332031 35.253906 116.160156 35.253906 116.160156 L 28.816406 134.636719 C 28.816406 134.636719 35.574219 134.636719 42.914062 134.636719 C 47.382812 120.027344 52.78125 120.410156 52.78125 120.410156 C 64.03125 122.875 74.828125 123.539062 78.597656 123.539062 C 82.367188 123.539062 93.167969 122.875 104.414062 120.410156 C 104.414062 120.410156 107.175781 120.214844 110.382812 125.445312 C 109.21875 132.890625 108.84375 134.628906 108.84375 134.628906 Z M 94.234375 35.453125 L 100.859375 37.359375 C 100.859375 37.359375 103.332031 28.445312 114.144531 20.914062 C 106.601562 22.976562 98.464844 28.433594 94.234375 35.453125 Z M 42.527344 20.914062 C 53.339844 28.445312 55.8125 37.359375 55.8125 37.359375 L 62.4375 35.453125 C 58.207031 28.433594 50.070312 22.976562 42.527344 20.914062 Z M 82.96875 91.148438 C 82.96875 91.148438 77.542969 92.398438 72.917969 91.011719 C 73.554688 96.339844 81.375 96.820312 82.96875 91.148438 Z M 82.96875 91.148438 " fill-opacity="0.298" fill-rule="nonzero"/></g><g clip-path="url(#3185bd9bf0)"><path fill="#ffffff" d="M 28.585938 32.496094 C 28.585938 32.496094 27.371094 49.195312 33.066406 57.183594 C 27.035156 61.574219 16.695312 75.847656 16.988281 87.46875 C 14.710938 79.917969 17.976562 67.007812 26.992188 55.464844 C 26.078125 48.628906 26.992188 39.230469 28.585938 32.496094 Z M 116.683594 118.847656 C 119.914062 94.839844 125.433594 87.492188 125.433594 87.492188 C 116.351562 85.035156 115.84375 108.167969 116.683594 118.847656 Z M 23.464844 103.058594 C 23.464844 103.058594 34.578125 113.242188 41.398438 114.324219 C 38.644531 117.800781 33.066406 134.636719 33.066406 134.636719 L 28.113281 134.636719 L 34.578125 115.761719 C 34.578125 115.761719 23.71875 110.375 23.464844 103.058594 Z M 23.464844 103.058594 " fill-opacity="1" fill-rule="nonzero"/></g><g clip-path="url(#9936c00614)"><path fill="#2b0806" d="M 149.996094 134.636719 C 148.46875 134.636719 146.464844 134.636719 146.464844 134.636719 C 146.4375 128.796875 147.460938 98.621094 144.40625 88.453125 C 142.789062 83.074219 137.742188 85.644531 137.058594 90.125 C 136.601562 87.875 136.082031 85.457031 133.785156 85.695312 C 130.953125 85.992188 129.792969 91.007812 129.792969 91.007812 C 129.792969 91.007812 127.515625 87.355469 125.433594 87.492188 C 122.144531 87.707031 119.980469 92.546875 118.402344 102.847656 C 117.515625 108.640625 115.234375 134.636719 115.234375 134.636719 L 112.296875 134.636719 C 112.296875 134.636719 113.914062 116.71875 114.429688 112.835938 L 114.445312 112.722656 L 114.863281 109.699219 C 115.808594 103.046875 116.863281 97.015625 117.875 93.195312 C 120.519531 83.265625 126.511719 82.21875 129.214844 86.988281 C 130.601562 81.875 136.621094 81.019531 137.253906 85.523438 C 137.453125 84.582031 138.390625 83.449219 139.707031 82.980469 C 139.183594 75.308594 135.832031 66.054688 127.75 54.984375 C 129.515625 51.265625 131.402344 33.78125 123.984375 18.417969 C 120.234375 18.421875 107.667969 21.496094 95.539062 34.703125 C 97.601562 35.417969 99.539062 36.292969 101.164062 37.359375 C 100.660156 37.382812 89.582031 34.230469 78.503906 34.230469 C 67.425781 34.230469 56.347656 37.382812 55.839844 37.359375 C 57.46875 36.292969 59.40625 35.417969 61.464844 34.703125 C 49.335938 21.496094 36.769531 18.421875 33.019531 18.417969 C 25.605469 33.78125 27.488281 51.265625 29.253906 54.984375 C -0.015625 95.089844 32.726562 111.339844 37.390625 114.980469 C 34.753906 120.375 29.910156 134.636719 29.910156 134.636719 L 26.65625 134.636719 C 26.65625 134.636719 29.800781 124.699219 33.632812 115.828125 C 4.414062 98.621094 13.871094 70.445312 25.839844 55.464844 C 22.25 34.246094 29.667969 16.023438 32.542969 15.539062 C 51.574219 19.183594 61.300781 30.542969 63.847656 33.957031 C 67.265625 32.996094 72.882812 31.59375 78.503906 31.59375 C 84.117188 31.59375 89.730469 32.996094 93.15625 33.957031 C 95.703125 30.542969 105.429688 19.183594 124.464844 15.539062 C 127.335938 16.023438 134.757812 34.246094 131.167969 55.464844 C 136.847656 62.574219 141.953125 72.65625 142.636719 83.125 C 143.621094 83.558594 144.660156 84.414062 145.679688 85.871094 C 147.585938 88.597656 147.875 92.113281 148.769531 99.191406 C 149.597656 105.722656 149.996094 130.777344 149.996094 134.636719 Z M 122.316406 23.933594 C 122.316406 23.933594 116.859375 31.671875 112.847656 39.910156 C 115.535156 41.675781 121.070312 47.429688 123.328125 50.789062 C 124.394531 48.867188 118.867188 40.738281 116.050781 39.160156 C 118.980469 36.042969 122.316406 23.933594 122.316406 23.933594 Z M 34.21875 23.933594 C 34.21875 23.933594 39.675781 31.671875 43.6875 39.910156 C 40.996094 41.675781 35.464844 47.429688 33.203125 50.789062 C 32.136719 48.867188 37.664062 40.738281 40.480469 39.160156 C 37.550781 36.042969 34.21875 23.933594 34.21875 23.933594 Z M 49.445312 62.675781 C 43.351562 64.117188 39.222656 70.207031 37.964844 75.257812 C 37.773438 76.027344 38.183594 76.636719 39.039062 76.851562 C 40.421875 77.199219 42.9375 76.492188 43.308594 75.003906 C 43.792969 73.066406 44.613281 71.304688 45.753906 69.773438 C 46.609375 68.617188 48.285156 66.621094 49.867188 66.226562 C 51.136719 65.90625 52.351562 67.988281 53 69.105469 L 53.15625 69.367188 C 54.273438 71.257812 55.175781 73.445312 55.839844 75.875 C 56.074219 76.726562 56.90625 77.0625 57.832031 77.0625 C 58.21875 77.0625 58.621094 77.003906 59 76.902344 C 60.550781 76.476562 61.4375 75.464844 61.15625 74.445312 C 58.71875 65.511719 54.667969 61.441406 49.445312 62.675781 Z M 118.5625 74.445312 C 116.121094 65.511719 112.070312 61.441406 106.847656 62.675781 C 100.757812 64.117188 96.628906 70.207031 95.371094 75.257812 C 95.253906 75.722656 95.363281 76.148438 95.675781 76.453125 C 96.332031 77.089844 97.648438 77.003906 98.574219 76.738281 C 99.726562 76.40625 100.523438 75.761719 100.714844 75.003906 C 101.195312 73.066406 102.019531 71.304688 103.15625 69.773438 C 104.015625 68.617188 105.691406 66.621094 107.269531 66.226562 C 108.539062 65.910156 109.753906 67.988281 110.40625 69.105469 L 110.5625 69.367188 C 111.679688 71.257812 112.582031 73.445312 113.246094 75.875 C 113.394531 76.417969 113.824219 76.804688 114.457031 76.972656 C 114.699219 77.035156 114.960938 77.066406 115.238281 77.066406 C 116.265625 77.066406 117.4375 76.648438 118.085938 75.988281 C 118.539062 75.53125 118.707031 74.980469 118.5625 74.445312 Z M 87.097656 77.132812 C 86.453125 77.480469 86.144531 78.589844 86.777344 79.777344 C 87.144531 80.46875 86.753906 81.183594 86.484375 81.546875 C 85.789062 82.496094 84.535156 83.078125 83.574219 82.898438 C 81.917969 82.585938 80.917969 80.632812 80.234375 78.96875 C 79.914062 78.191406 79.242188 77.707031 78.480469 77.707031 C 77.71875 77.707031 77.050781 78.191406 76.730469 78.96875 C 76.167969 80.335938 75.121094 82.878906 73.386719 83.203125 C 72.652344 83.34375 71.734375 82.984375 71.003906 82.28125 C 69.917969 81.1875 70.242188 79.761719 70.359375 79.375 C 70.371094 79.34375 70.382812 79.316406 70.394531 79.273438 L 70.644531 78.601562 L 70.519531 78.601562 C 70.554688 77.898438 70.273438 77.292969 69.769531 77.089844 C 69.335938 76.914062 68.703125 77.050781 68.222656 77.953125 C 67.328125 79.636719 67.277344 81.636719 68.089844 83.304688 C 68.839844 84.855469 70.257812 85.921875 71.980469 86.226562 C 74.445312 86.664062 76.683594 85.621094 78.480469 83.207031 C 80.011719 85.261719 81.859375 86.324219 83.898438 86.324219 C 84.253906 86.324219 84.617188 86.289062 84.984375 86.226562 C 86.703125 85.921875 88.121094 84.855469 88.875 83.304688 C 89.683594 81.636719 89.636719 79.636719 88.742188 77.953125 C 88.222656 76.976562 87.53125 76.902344 87.097656 77.132812 Z M 87.097656 77.132812 " fill-opacity="1" fill-rule="nonzero"/></g><path fill="#ef5454" d="M 133.199219 101.296875 C 132.304688 100.289062 128.726562 97.554688 126.425781 102.015625 C 124.125 106.472656 130.402344 110.933594 133.199219 110.933594 C 135.996094 110.933594 142.277344 106.472656 139.976562 102.015625 C 137.675781 97.554688 134.09375 100.289062 133.199219 101.296875 Z M 135.394531 93.785156 C 135.394531 92.421875 134.617188 91.320312 133.660156 91.320312 C 132.699219 91.320312 131.921875 92.421875 131.921875 93.785156 C 131.921875 95.144531 132.699219 96.246094 133.660156 96.246094 C 134.617188 96.246094 135.394531 95.144531 135.394531 93.785156 Z M 140.78125 92.800781 C 139.808594 92.652344 138.832031 93.558594 138.605469 94.828125 C 138.378906 96.09375 138.980469 97.242188 139.953125 97.390625 C 140.925781 97.539062 141.902344 96.632812 142.128906 95.363281 C 142.355469 94.097656 141.753906 92.949219 140.78125 92.800781 Z M 126.746094 97.511719 C 127.726562 97.226562 128.164062 95.972656 127.71875 94.703125 C 127.273438 93.4375 126.117188 92.644531 125.132812 92.929688 C 124.148438 93.214844 123.714844 94.472656 124.160156 95.738281 C 124.601562 97.003906 125.761719 97.796875 126.746094 97.511719 Z M 126.746094 97.511719 " fill-opacity="1" fill-rule="nonzero"/></svg>